<svg width="24" height="24" viewBox="0 0 480 480" xmlns="http://www.w3.org/2000/svg"><defs></defs><g transform=""><title>angrytools</title><path d="M 413.524 253.23 C 377.111 158.604 247.464 153.501 278.774 15.969 C 281.094 5.764 270.193 -2.121 261.38 3.213 C 177.191 52.845 116.658 152.342 167.45 282.684 C 171.625 293.353 159.101 303.326 150.055 296.368 C 108.077 264.594 103.67 218.905 107.381 186.203 C 108.773 174.143 93.002 168.345 86.276 178.318 C 70.505 202.438 54.502 241.401 54.502 300.079 C 63.315 429.957 173.016 469.849 212.444 474.951 C 268.802 482.141 329.798 471.704 373.632 431.581 C 421.873 386.819 439.499 315.386 413.524 253.23 Z" fill="#0d47a1" stroke="null"></path><path d="M 294.441 308.026 L 294.441 292.594 C 294.441 283.416 293.639 277.086 292.032 273.612 C 290.424 270.138 287.5 267.253 283.267 264.957 C 279.031 262.66 273.774 261.517 267.493 261.517 C 262.674 261.517 258.293 262.278 254.349 263.808 C 250.403 265.337 247.265 267.288 244.927 269.651 C 242.591 272.011 239.89 276.604 236.822 283.416 C 232.878 292.036 228.167 298.222 222.69 301.977 C 217.215 305.732 210.752 307.611 203.301 307.611 C 193.956 307.611 186.285 304.828 180.296 299.267 C 174.31 293.706 171.319 286.823 171.319 278.618 C 171.319 269.3 174.385 261.03 180.517 253.797 C 188.695 244.205 200.89 236.348 217.102 230.227 C 233.315 224.111 251.572 221.054 271.877 221.054 C 292.176 221.054 309.448 224.183 323.688 230.44 C 337.928 236.694 347.86 244.171 353.483 252.86 C 359.108 261.547 361.917 274.795 361.917 292.594 L 361.917 367.259 C 361.917 376.439 362.431 382.312 363.451 384.887 C 364.474 387.458 374.098 396.291 377.456 398.237 C 380.816 400.184 389.769 402.586 396.918 402.586 C 404.067 402.586 375.266 442.001 350.641 437.829 C 326.016 433.657 310.07 420.865 303.642 412.522 C 289.036 421.559 275.783 427.991 263.88 431.814 C 251.973 435.637 240.472 437.55 229.372 437.55 C 208.486 437.55 191.617 431.954 178.765 420.759 C 165.912 409.569 159.487 395.767 159.487 379.36 C 159.487 370.043 161.714 361.489 166.168 353.703 C 170.624 345.916 177.268 339.103 186.105 333.263 C 194.939 327.425 208.599 322.245 227.072 317.724 C 245.547 313.208 268.003 309.972 294.441 308.026 Z M 294.441 342.649 C 275.306 345.29 261.797 347.968 253.91 350.681 C 246.022 353.392 240.4 356.797 237.041 360.9 C 233.684 365.002 232.001 369.206 232.001 373.518 C 232.001 379.08 234.191 383.737 238.576 387.492 C 242.957 391.244 248.87 393.126 256.322 393.126 C 261.141 393.126 266.728 391.941 273.079 389.579 C 279.434 387.214 286.554 383.737 294.441 379.151 L 294.441 342.649 Z" fill="white" stroke="null"></path></g></svg>